<svg width="145" height="20" viewBox="0 0 145 20" fill="none" xmlns="http://www.w3.org/2000/svg">
<path d="M27.1278 3.30577V4.97767L28.1787 5.05366L27.5559 13.7171C27.4781 14.2111 27.4002 14.3251 27.011 14.4011L26.3883 14.477V16.0729H31.0977V14.4011L30.1247 14.3251L30.5139 7.40951H30.5528L33.3162 14.667H35.379L38.2202 7.29551H38.2981L38.6484 13.6791C38.6873 14.1731 38.5705 14.2871 38.2202 14.3251L37.5975 14.4011V15.9969H42.3069V14.3251L41.295 14.2491L40.6723 5.54763C40.5944 5.12966 40.8279 4.97766 41.1782 4.90167L41.762 4.82567V3.22978H37.4418L34.406 11.3233H34.3282L31.448 3.22978H27.1278V3.30577ZM52.3874 6.76355C50.8695 6.19359 49.4294 6.07959 48.7678 6.07959C45.1871 6.07959 43.4746 8.24545 43.4746 11.6272C43.4746 14.2491 44.4865 16.3009 47.4056 16.3009C48.651 16.3009 49.5462 15.769 50.0133 15.085L50.0911 15.123L50.1689 16.0729H53.3604V14.553L52.8156 14.515C52.4653 14.515 52.3874 14.3631 52.3874 13.9831V6.76355ZM49.663 12.8432C49.663 13.6031 49.0792 14.3251 47.9894 14.3251C46.5882 14.3251 46.199 12.9571 46.199 11.4752C46.199 9.65136 46.705 8.05546 48.4175 8.05546C48.9235 8.05546 49.3905 8.16946 49.624 8.24545V12.8432H49.663ZM59.7435 8.20746C59.977 8.20746 60.1327 8.24545 60.2494 8.28345C60.4051 8.35945 60.444 8.43544 60.444 8.73942V9.99334L62.6625 9.84135V6.38357C62.1176 6.15559 61.4171 6.0416 60.8332 6.0416C59.1986 6.0416 58.3423 6.99153 58.0309 7.75148H57.992V6.26958H54.3724V7.86548L55.034 7.94147C55.3843 7.97947 55.5011 8.09346 55.5011 8.47344V13.7931C55.5011 14.2491 55.4233 14.3631 55.034 14.4391L54.4113 14.515V16.0349H59.8602V14.4391L58.2255 14.3631V9.99334C58.2255 8.9674 58.8094 8.20746 59.7435 8.20746ZM67.4109 12.0072C67.839 11.9312 68.1893 11.8932 68.5785 11.7412L70.4856 16.0349H73.7939V14.4391L72.743 14.3631L70.9527 10.6013C71.8868 9.84135 72.4317 8.89141 72.5873 7.97947L73.4825 7.86548V6.30758H69.1234V7.86548L69.6294 7.94147C69.9018 8.01747 70.0575 8.05546 70.0575 8.32145C70.0575 9.19539 68.6563 10.0313 67.4498 10.1833V2.35583H63.5966V3.95173L64.2583 4.02773C64.6475 4.06572 64.7253 4.17972 64.7253 4.59769V13.8691C64.7253 14.3251 64.6086 14.4011 64.2583 14.477L63.6355 14.553V16.0729H68.345V14.477L67.4498 14.4011V12.0072H67.4109ZM74.1831 8.16946H75.5064V12.8812C75.5064 14.515 75.6621 16.3009 78.7368 16.3009C79.7488 16.3009 80.7218 16.0349 81.2667 15.693L80.7996 13.8691C80.4883 14.0591 80.0212 14.2111 79.4763 14.2111C78.6979 14.2111 78.2698 13.9071 78.2698 12.7672V8.16946H80.605L80.7218 6.30758H78.3087V4.10372H76.7908C76.3627 5.24365 75.8567 6.26958 74.4166 6.53556L74.1831 8.16946ZM83.1738 17.7828C83.1738 18.2768 83.057 18.3528 82.7068 18.3908L82.084 18.4668V19.9867H87.6108V18.3908L85.8983 18.2768V15.769C86.4431 16.0729 87.1437 16.2629 87.8832 16.2629C90.6466 16.2629 92.0867 14.2111 92.0867 10.8293C92.0867 7.75149 90.8412 6.0036 88.5449 6.0036C87.4551 6.0036 86.3264 6.38357 85.7426 7.4475H85.7037V6.26958H82.0451V7.86548L82.7068 7.90348C83.0181 7.94147 83.1738 8.09346 83.1738 8.47344V17.7828ZM85.9372 9.61336C85.9372 9.0054 86.4432 8.13146 87.6108 8.13146C89.0508 8.13146 89.3622 9.65136 89.3622 11.2473C89.3622 12.9951 88.8952 14.3631 87.4162 14.3631C86.9102 14.3631 86.3653 14.1731 85.9761 13.9071V9.61336H85.9372ZM97.0296 2.35583H93.1765V3.95173L93.8381 4.02773C94.2273 4.06572 94.3052 4.17972 94.3052 4.59769V13.8311C94.3052 14.3251 94.2273 14.4011 93.8381 14.4391L93.2154 14.515V16.0349H98.0805V14.4391L97.0685 14.3631V2.35583H97.0296ZM108.005 6.76355C106.487 6.19359 105.086 6.07959 104.386 6.07959C100.805 6.07959 99.0924 8.24545 99.0924 11.6272C99.0924 14.2491 100.104 16.3009 103.023 16.3009C104.269 16.3009 105.164 15.769 105.631 15.085L105.709 15.123L105.787 16.0729H108.978V14.553L108.433 14.515C108.083 14.515 108.005 14.3631 108.005 13.9831V6.76355ZM105.281 12.8432C105.281 13.6031 104.697 14.3251 103.607 14.3251C102.206 14.3251 101.817 12.9571 101.817 11.4752C101.817 9.65136 102.323 8.05546 104.035 8.05546C104.541 8.05546 105.008 8.16946 105.242 8.24545V12.8432H105.281ZM119.059 6.76355C117.541 6.19359 116.14 6.07959 115.439 6.07959C111.858 6.07959 110.146 8.24545 110.146 11.6272C110.146 14.2491 111.158 16.3009 114.077 16.3009C115.322 16.3009 116.218 15.769 116.685 15.085L116.762 15.123L116.84 16.0729H120.032V14.553L119.487 14.515C119.137 14.515 119.059 14.3631 119.059 13.9831V6.76355ZM116.334 12.8432C116.334 13.6031 115.751 14.3251 114.661 14.3251C113.26 14.3251 112.87 12.9571 112.87 11.4752C112.87 9.65136 113.376 8.05546 115.089 8.05546C115.595 8.05546 116.062 8.16946 116.295 8.24545V12.8432H116.334ZM120.732 8.16946H122.056V12.8812C122.056 14.515 122.211 16.3009 125.286 16.3009C126.298 16.3009 127.271 16.0349 127.816 15.693L127.349 13.8691C127.038 14.0591 126.571 14.2111 126.026 14.2111C125.247 14.2111 124.819 13.9071 124.819 12.7672V8.16946H127.154L127.271 6.30758H124.819V4.10372H123.301C122.873 5.24365 122.367 6.26958 120.927 6.53556L120.732 8.16946ZM134.082 8.01747C134.316 8.09346 134.355 8.24545 134.355 8.54943V9.34738L136.301 9.19539V6.80155C135.444 6.34558 134.238 6.11759 133.148 6.11759C130.774 6.11759 129.023 7.21952 129.023 9.27139C129.023 11.3233 130.54 11.7792 131.942 12.1592C133.031 12.4252 133.81 12.6152 133.81 13.4131C133.81 14.2111 133.187 14.515 132.253 14.515C131.864 14.515 131.436 14.439 131.202 14.3251C130.969 14.2491 130.891 14.1351 130.891 13.8311V12.9571L128.906 13.1091V15.655C129.684 16.0729 131.202 16.3009 132.409 16.3009C134.939 16.3009 136.573 15.123 136.573 13.0711C136.573 11.0953 135.016 10.6393 133.576 10.2213C132.525 9.91735 131.669 9.76536 131.669 8.89141C131.669 8.20746 132.253 7.90348 133.031 7.90348C133.421 7.90348 133.771 7.90347 134.082 8.01747Z" fill="#2D3C4D"/>
<path fill-rule="evenodd" clip-rule="evenodd" d="M10.1583 0C15.7629 0 20.3167 4.40771 20.3167 9.87936C20.3167 15.313 15.7629 19.7587 10.1583 19.7587C4.55374 19.7587 0 15.351 0 9.87936C0 4.40771 4.55374 0 10.1583 0Z" fill="#EDA566"/>
<path fill-rule="evenodd" clip-rule="evenodd" d="M13.5834 7.52349L9.41887 3.60974C8.64045 4.33169 8.64045 5.50962 9.41887 6.23157L12.1822 8.8154L8.05664 12.7671C8.83506 13.4891 10.0805 13.4891 10.82 12.7671L13.5834 10.1833C14.3229 9.42336 14.3229 8.24544 13.5834 7.52349Z" fill="#2D3C4D"/>
<path fill-rule="evenodd" clip-rule="evenodd" d="M12.1044 15.845C13.1942 15.845 14.0504 15.009 14.0504 13.9831H11.1314H8.25122C7.16143 13.9831 6.30518 14.819 6.30518 15.845H9.22424H12.1044Z" fill="#2D3C4D"/>
</svg>
